<svg width="72" height="55" viewBox="0 0 72 55" fill="none" xmlns="http://www.w3.org/2000/svg">
<path d="M31.6716 35.5341C29.2796 31.8753 27.8915 27.5062 27.8915 22.8102C27.8915 14.6787 32.065 7.52154 38.3851 3.35046C26.1542 4.08284 16.4569 14.2166 16.4569 26.6167C16.4569 30.6683 17.4924 34.4779 19.3116 37.7972C23.1232 37.2723 27.2621 36.5179 31.6716 35.5341Z" fill="white"/>
<path d="M35.2188 39.7711C30.8123 40.8084 26.4909 41.6665 22.5251 42.2983C26.7962 46.988 32.9526 49.9332 39.8014 49.9332C44.5509 49.9332 48.9667 48.5125 52.6524 46.0796C52.1834 46.1079 51.7113 46.1268 51.236 46.1268C45.0356 46.1236 39.3985 43.7096 35.2188 39.7711Z" fill="white"/>
<path d="M59.3092 25.9535C61.4143 25.9535 63.1208 24.2493 63.1208 22.147C63.1208 20.0448 61.4143 18.3406 59.3092 18.3406C57.2042 18.3406 55.4977 20.0448 55.4977 22.147C55.4977 24.2493 57.2042 25.9535 59.3092 25.9535Z" fill="white"/>
<path d="M69.4125 23.1969C69.1544 22.1659 68.248 21.0595 64.2098 20.8174C64.3263 21.2418 64.3924 21.6881 64.3924 22.1502C64.3924 22.5116 64.3514 22.8668 64.279 23.2094C66.1297 23.3414 66.8253 23.6589 67.0488 23.8004C66.2116 25.6046 55.9258 30.8569 37.1576 35.5498C36.1693 35.7981 35.2062 36.0275 34.2588 36.2507C27.9797 37.7249 22.5976 38.6773 18.2258 39.2305C10.7097 40.1829 6.18056 39.9692 5.24263 39.2494C5.5857 38.5767 7.88647 36.587 15.4403 33.6198C15.6197 33.5475 15.7204 33.3526 15.6701 33.1672C15.5284 32.6517 15.4057 32.1299 15.2987 31.6019C15.2515 31.3693 15.006 31.2373 14.7856 31.3221C2.00392 36.3041 2.6397 38.8659 2.8852 39.8371C3.17791 41.0096 4.31413 42.2543 9.82529 42.2543C11.1283 42.2543 12.6737 42.1851 14.5087 42.028C16.1233 41.8897 17.8607 41.6917 19.6862 41.4402C24.6277 40.7581 30.2521 39.6706 36.0749 38.2655C36.6288 38.1335 37.1828 37.9952 37.7399 37.8569C46.3198 35.7132 54.2954 33.1358 60.2 30.6023C69.0569 26.799 69.7776 24.6459 69.4125 23.1969Z" fill="white"/>
</svg>
